<?xml version="1.0" standalone="no"?>
<!DOCTYPE svg PUBLIC "-//W3C//DTD SVG 20010904//EN"
 "http://www.w3.org/TR/2001/REC-SVG-20010904/DTD/svg10.dtd">
<svg version="1.0" xmlns="http://www.w3.org/2000/svg"
 width="450.000000pt" height="450.000000pt" viewBox="0 0 450.000000 450.000000"
 preserveAspectRatio="xMidYMid meet">
<metadata>
Created by potrace 1.11, written by Peter Selinger 2001-2013
</metadata>
<g transform="translate(0.000000,450.000000) scale(0.100000,-0.100000)"
fill="#000000" stroke="none">
<path d="M2194 4089 c-17 -19 -19 -41 -22 -233 -3 -203 -2 -213 18 -239 28
-35 87 -38 116 -6 17 19 19 39 19 239 0 200 -2 220 -19 239 -26 29 -86 29
-112 0z"/>
<path d="M1320 3540 c-12 -12 -20 -33 -20 -53 0 -28 13 -45 88 -120 74 -73 92
-87 120 -87 19 0 40 8 52 20 12 12 20 33 20 52 0 28 -14 46 -87 120 -75 75
-92 88 -120 88 -20 0 -41 -8 -53 -20z"/>
<path d="M3007 3472 c-73 -74 -87 -92 -87 -120 0 -42 30 -72 73 -72 28 0 45
13 120 88 71 71 87 93 87 118 0 41 -32 74 -73 74 -27 0 -46 -14 -120 -88z"/>
<path d="M2095 3405 c-272 -50 -517 -253 -616 -509 -108 -278 -66 -575 113
-812 53 -70 89 -83 128 -44 30 30 25 53 -26 122 -100 137 -144 266 -144 427 0
111 18 194 60 287 83 183 229 314 424 381 73 25 94 28 216 28 119 -1 144 -4
215 -28 111 -37 197 -90 279 -173 125 -125 193 -276 203 -451 16 -275 -126
-487 -427 -638 -110 -56 -183 -81 -404 -141 -110 -30 -208 -61 -218 -70 -16
-15 -18 -34 -18 -159 0 -125 2 -144 18 -158 10 -10 30 -17 44 -17 20 0 368 88
501 126 16 5 18 0 15 -42 l-3 -47 -259 -72 c-204 -57 -263 -77 -278 -95 -24
-29 -23 -43 6 -76 28 -33 -4 -39 371 65 143 40 268 80 278 89 15 14 17 32 15
161 -4 198 10 191 -254 122 -109 -29 -227 -61 -262 -71 l-63 -18 3 51 3 50
176 49 c282 77 440 149 598 274 132 104 227 244 268 394 27 98 24 290 -5 393
-42 148 -114 271 -222 377 -191 190 -468 275 -735 225z"/>
<path d="M2501 2877 c-19 -9 -48 -70 -141 -294 -64 -155 -119 -285 -122 -289
-4 -3 -61 76 -127 175 -117 174 -123 181 -155 181 -66 0 -66 -1 -66 -348 0
-310 0 -311 22 -326 33 -23 64 -19 87 10 20 25 21 40 21 208 l0 181 95 -142
c138 -207 152 -206 245 14 35 82 70 167 79 191 8 23 18 42 21 42 3 0 4 -51 2
-112 -3 -125 6 -157 50 -172 20 -7 33 -5 52 8 l26 16 0 313 c0 235 -3 317 -12
329 -19 23 -50 29 -77 15z"/>
<path d="M800 2683 c-53 -20 -69 -93 -29 -129 19 -17 39 -19 240 -19 212 0
219 1 240 22 29 29 29 77 0 106 -21 21 -30 22 -229 24 -114 1 -214 -1 -222 -4z"/>
<path d="M3270 2678 c-13 -8 -31 -25 -39 -39 -12 -22 -12 -29 0 -54 25 -52 44
-56 270 -53 187 3 209 5 228 22 14 13 21 31 21 56 0 25 -7 43 -21 56 -19 17
-41 19 -228 22 -152 2 -212 -1 -231 -10z"/>
<path d="M1387 1852 c-71 -71 -87 -93 -87 -118 0 -41 32 -74 73 -74 27 0 46
14 120 88 73 74 87 92 87 120 0 42 -30 72 -73 72 -28 0 -45 -13 -120 -88z"/>
<path d="M2940 1920 c-12 -12 -20 -33 -20 -53 0 -28 13 -45 88 -120 97 -97
128 -108 170 -64 42 44 31 73 -65 169 -75 75 -92 88 -120 88 -20 0 -41 -8 -53
-20z"/>
<path d="M2219 1211 c-31 -9 -64 -22 -73 -30 -25 -21 -20 -68 9 -87 22 -15 30
-14 102 2 43 11 86 27 95 36 39 39 9 99 -48 97 -16 -1 -54 -9 -85 -18z"/>
</g>
</svg>
